<?xml version="1.0" encoding="UTF-8" standalone="no"?>
<svg width="63px" height="44px" viewBox="0 0 63 44" version="1.1" xmlns="http://www.w3.org/2000/svg" xmlns:xlink="http://www.w3.org/1999/xlink">
    <!-- Generator: Sketch 41.2 (35397) - http://www.bohemiancoding.com/sketch -->
    <title>Page 1</title>
    <desc>Created with Sketch.</desc>
    <defs></defs>
    <g id="Page-1" stroke="none" stroke-width="1" fill="none" fill-rule="evenodd">
        <g id="polymer-icon" transform="translate(-1.000000, -12.000000)">
            <g id="Page-1" transform="translate(1.000000, 12.000000)">
                <path d="M43.9951088,11.2222726 C41.9660045,14.752629 39.9370433,18.2831291 37.9060799,21.8123347 C37.8361453,21.9338777 37.7446154,22.042763 37.6630966,22.1574018 C33.8354292,22.1574018 30.0077618,22.1654567 26.1802374,22.1490592 C25.6108926,22.1466139 25.457866,22.2058751 25.7999591,22.7818019 C27.0387595,24.8683138 28.259683,26.9666205 29.4312662,29.0919686 C30.083989,30.2761857 30.8585611,31.3952442 31.3706997,32.6569899 C31.1357252,32.9078431 30.8311021,32.7950742 30.5590866,32.7963687 C26.7256986,32.8160745 22.8923105,32.8257117 19.0589225,32.8377941 L19.0336088,32.8068689 C21.0408316,29.3144858 23.0479114,25.8221026 25.0564214,22.3305825 C25.1272141,22.207745 25.2137385,22.0939693 25.2932551,21.9763099 C29.2196032,21.9885361 33.1455223,22.0050775 37.0714414,22.0089611 C37.8058261,22.0096803 37.4511476,21.5860778 37.2903981,21.305594 C35.3602606,17.9370552 33.4205411,14.5739823 31.4833959,11.2096149 L31.4985555,11.2179575 C32.4488937,11.2205466 33.3990888,11.2277385 34.3494269,11.2248617 C37.5558349,11.2153684 40.7623859,11.2022792 43.9687939,11.1904845 L43.9951088,11.2222726 Z" id="Fill-4" fill="#F06A8B"></path>
                <path d="M18.9373021,32.7948585 C18.9694806,32.7990297 19.0015161,32.8030572 19.0335516,32.806797 C19.0335516,32.806797 19.0590083,32.8377221 19.0590083,32.8375783 C19.0409884,32.8733939 19.0391292,32.9102164 19.0535737,32.9477581 C16.9847112,36.5467251 14.9157057,40.1456921 12.8468431,43.7448029 C12.5991402,43.7344466 12.5738265,43.5064636 12.4857289,43.3534201 C10.5261303,39.948778 8.57067905,36.5415469 6.61708703,33.1333089 C6.55916574,33.0323347 6.52870344,32.9155384 6.48536973,32.8060778 C6.52884645,32.8050709 6.57189412,32.8007558 6.61451275,32.7927009 L18.9373021,32.7948585 Z" id="Fill-6" fill="#19489C"></path>
                <path d="M50.178442,0.278024191 C50.3642192,0.268818568 50.4048356,0.427327885 50.4724819,0.544987251 C52.4774165,4.0347813 54.4806349,7.52543838 56.4818511,11.01739 C56.5160318,11.0770827 56.5224675,11.1527414 56.5419176,11.2212082 C56.4984409,11.2220713 56.4553932,11.2265302 56.4127746,11.2344413 C52.3050828,11.2340098 48.197248,11.2335783 44.0895562,11.2330029 C44.0580928,11.2296947 44.0264864,11.2260987 43.995166,11.2222151 C43.995166,11.2222151 43.9688511,11.1905708 43.9688511,11.1907146 C43.9857269,11.1556182 43.986728,11.1198025 43.9719975,11.0836992 C46.040717,7.48185551 48.1095795,3.87986793 50.178442,0.278024191" id="Fill-8" fill="#19489C"></path>
                <path d="M19.0536452,32.9478156 C19.0392007,32.9101301 19.0409169,32.8733076 19.0589368,32.837492 C22.8923248,32.8256973 26.7257129,32.8160602 30.5591009,32.7963544 C30.8311164,32.7950598 31.1357395,32.9078287 31.370714,32.6571193 C31.4250599,32.7142229 31.4794058,32.7714704 31.5337517,32.8287179 C29.9838925,35.5580412 28.4430432,38.2926865 26.8787395,41.0135234 C26.349153,41.934661 25.8987971,42.9065734 25.2277683,43.7418398 C23.1697749,40.1437359 21.1117816,36.5457757 19.0536452,32.9478156" id="Fill-10" fill="#EF557B"></path>
                <path d="M43.9719259,11.0836273 C43.9867996,11.1198745 43.9856554,11.1555463 43.9687796,11.1907865 C40.7623716,11.2022936 37.5558206,11.2153828 34.3494126,11.2248761 C33.3990745,11.227609 32.4488794,11.220561 31.4985412,11.2179719 C31.7668384,10.499358 32.2081843,9.87452632 32.5841721,9.21546126 C34.2015346,6.3795541 35.8301953,3.55026348 37.458284,0.720541353 C37.549957,0.561169009 37.5955789,0.358645309 37.798661,0.284568813 C39.8565113,3.88425499 41.9142186,7.48394116 43.9719259,11.0836273" id="Fill-12" fill="#EF557B"></path>
                <path d="M43.9719259,11.0836273 C41.9142186,7.48394116 39.8565113,3.88425499 37.798661,0.284568813 C37.9599825,0.25997254 38.121161,0.214232102 38.2824825,0.214088264 C42.0848361,0.210060804 45.8870468,0.210204642 49.6894004,0.213944426 C49.8524381,0.214088264 50.0153328,0.255801242 50.1782275,0.27809611 C48.109651,3.87979601 46.0407885,7.48178359 43.9719259,11.0836273" id="Fill-14" fill="#ED335A"></path>
                <path d="M12.8057834,21.8798954 C12.7940561,21.9279372 12.7824718,21.9761229 12.7707446,22.0241648 C12.7338466,22.0273292 12.6966625,22.0286237 12.6596215,22.0279045 C8.54477894,22.0222949 4.42979335,22.0166852 0.314950776,22.0110755 C0.894592683,20.6716574 1.70906608,19.4624126 2.41870909,18.1956326 C3.62089756,16.0494279 4.86012705,13.9240798 6.09006053,11.7935534 C6.24380222,11.5271657 6.43444191,11.2823537 6.60806275,11.0277607 C6.60820576,11.0279045 6.62579667,11.0950768 6.62579667,11.0950768 C6.68257384,11.2502779 6.71875676,11.4172736 6.7992745,11.5588101 C7.87975676,13.4550245 8.94150399,15.3624583 10.0588843,17.2366656 C10.9799042,18.7813403 11.7766437,20.4003792 12.8057834,21.8798954" id="Fill-16" fill="#448BC9"></path>
                <path d="M50.2149539,22.1456646 C50.2133807,22.096472 50.225108,22.0507316 50.2501357,22.0084433 C50.2891789,22.0015391 50.3283652,21.9985185 50.3679805,21.9995253 C54.4828231,22.005135 58.5975226,22.0106008 62.7123652,22.0162105 C62.2415581,23.1427486 61.5575149,24.1514835 60.9591379,25.2068218 C59.5927676,27.6171128 58.2036579,30.0143145 56.8196967,32.4142491 C56.7018519,32.6186427 56.5534018,32.8049127 56.4191102,32.9993815 L56.4015193,32.9322092 C56.3547532,32.7985839 56.3271512,32.653883 56.2582177,32.5330592 C55.0106933,30.3484498 53.7849073,28.1507512 52.4969095,25.9905943 C51.7337787,24.7105812 51.1132344,23.3442654 50.2149539,22.1456646" id="Fill-18" fill="#448BC9"></path>
                <path d="M50.1113963,43.7539941 C49.9207567,43.8966813 49.6992256,43.8459065 49.4895649,43.8460503 C45.8240771,43.8486394 42.1587323,43.8489271 38.4932445,43.8470572 C37.7309717,43.8467695 37.7115216,43.8306597 38.0900837,43.1779235 C40.0416735,39.8138437 41.8974429,36.3936672 43.9372733,33.0812252 C44.1046014,33.1466715 44.1856912,33.2864819 44.2709285,33.4360732 C45.3561303,35.3410618 46.4529163,37.23929 47.5342567,39.1465799 C48.4022178,40.6773024 49.2530172,42.2178058 50.1113963,43.7539941" id="Fill-20" fill="#70AEDE"></path>
                <path d="M12.9158481,0.272889179 C13.1066308,0.130921216 13.3280188,0.181408303 13.5378226,0.181264466 C17.2030244,0.178531546 20.8682262,0.178387708 24.533571,0.180113763 C25.2929834,0.180401438 25.3128625,0.196655116 24.9367317,0.848815953 C22.9938659,4.21807388 21.0401308,7.5808591 19.0899712,10.9459457 C18.922786,10.8804995 18.8416962,10.7406891 18.756316,10.5910977 C17.6711142,8.68610919 16.5743282,6.78759333 15.4928448,4.88030337 C14.6250266,3.34958091 13.7742273,1.80907748 12.9158481,0.272889179" id="Fill-22" fill="#70AEDE"></path>
                <path d="M12.9158481,0.272889179 C13.7742273,1.80907748 14.6250266,3.34958091 15.4928448,4.88030337 C16.5743282,6.78759333 17.6711142,8.68610919 18.756316,10.5910977 C18.8416962,10.7406891 18.922786,10.8804995 19.0899712,10.9459457 C19.0384856,11.0426048 18.986857,11.13912 18.9352284,11.235779 C18.7777683,11.0269264 18.5490865,11.0835986 18.341714,11.0837424 C14.4363891,11.0856123 10.5310643,11.0906466 6.62588248,11.0949618 C6.62588248,11.0949618 6.60814856,11.0279333 6.60814856,11.0277895 C7.56763969,9.04771755 8.76782594,7.20400392 9.82757095,5.28046028 C10.6346075,3.81561556 11.4871231,2.37594246 12.3349191,0.934255639 C12.482082,0.683977771 12.5314224,0.32179405 12.9158481,0.272889179" id="Fill-24" fill="#5DA2D8"></path>
                <path d="M50.1113963,43.7539941 C49.2530172,42.2178058 48.4022178,40.6773024 47.5342567,39.1465799 C46.4529163,37.23929 45.3561303,35.3410618 44.2709285,33.4360732 C44.1856912,33.2864819 44.1046014,33.1466715 43.9372733,33.0812252 C43.9879008,32.9832717 44.0383853,32.8851742 44.0890127,32.7872207 C44.2444706,32.9983746 44.4731524,32.9437162 44.680811,32.9435724 C48.587709,32.9417025 52.494607,32.9365244 56.401505,32.9322092 C56.401505,32.9322092 56.4190959,32.9992377 56.4190959,32.9993815 C55.3087234,35.2239778 53.9721003,37.3196953 52.7653354,39.4892017 C52.080148,40.7211729 51.3736513,41.9413495 50.6575726,43.1554848 C50.522995,43.3837555 50.476801,43.7262334 50.1113963,43.7539941" id="Fill-26" fill="#5DA2D8"></path>
                <path d="M19.0536452,32.9478156 C21.1117816,36.5457757 23.1697749,40.1437359 25.2277683,43.7418398 C24.0900798,43.7625525 22.9523914,43.7967859 21.8147029,43.8013887 C18.9642605,43.8127519 16.1138182,43.8116012 13.2633758,43.8110258 C13.1245078,43.8110258 12.9856397,43.7678745 12.8469146,43.7447166 C14.9157772,40.1457496 16.9846397,36.5467826 19.0536452,32.9478156" id="Fill-28" fill="#ED2F59"></path>
                <path d="M6.62581098,11.0950049 C10.5311358,11.0906898 14.4364606,11.0856554 18.3417855,11.0836417 C18.549015,11.0836417 18.7778398,11.0269696 18.9352999,11.2358222 C16.9357999,14.8093298 14.9205682,18.3736319 12.8056547,21.8798235 C11.776658,20.4003073 10.9799185,18.7812684 10.0588986,17.2365937 C8.94151829,15.3625302 7.87977106,13.4549526 6.7992888,11.5587381 C6.71877106,11.4172017 6.68258814,11.2502059 6.62581098,11.0950049" id="Fill-30" fill="#5098D2"></path>
                <path d="M56.4015765,32.932238 C52.4946785,32.9365531 48.5877805,32.9415874 44.6808825,32.9436012 C44.4732239,32.943745 44.2443991,32.9984034 44.0890843,32.7872494 C46.095163,29.2192076 48.1051031,25.6533233 50.2150111,22.1456934 C51.1132916,23.3441504 51.7336929,24.71061 52.4969667,25.9906231 C53.7849645,28.15078 55.0107506,30.3484786 56.2582749,32.5330879 C56.3270654,32.6537679 56.3546674,32.7986126 56.4015765,32.932238" id="Fill-32" fill="#5098D2"></path>
                <path d="M0.314979379,22.0110899 C4.42982195,22.0166996 8.54466452,22.0223093 12.6593641,22.0279189 C11.4548874,24.1626165 10.2452621,26.2942936 9.04793614,28.4331625 C8.23503592,29.8853495 7.31716231,31.2782753 6.61452705,32.792744 C6.57190843,32.8006551 6.52886075,32.8051141 6.48538404,32.806121 C5.21125876,30.6242445 3.91754035,28.4537313 2.67015898,26.2564642 C1.87127428,24.8495861 0.970705543,23.4985172 0.314979379,22.0110899" id="Fill-34" fill="#3D82C4"></path>
                <path d="M62.7123366,22.016153 C58.597637,22.0105433 54.4827945,22.0050775 50.3682379,21.9997555 C51.5724286,19.864914 52.7779064,17.7307918 53.9799519,15.5947996 C54.7962845,14.1443387 55.6955661,12.7409127 56.4127889,11.2344989 C56.4554075,11.2265878 56.4984552,11.2221288 56.5419319,11.2211219 C58.016708,13.7554011 59.5032113,16.2830637 60.9609685,18.8271239 C61.5637789,19.8788663 62.246678,20.887745 62.7123366,22.016153" id="Fill-36" fill="#3D82C4"></path>
                <path d="M56.412746,11.2344845 C55.6956662,12.7408983 54.7962416,14.1443243 53.980052,15.5947852 C52.7778635,17.7307774 51.5723857,19.8648996 50.368195,21.9997411 C50.3284367,21.9984466 50.2891074,22.0014671 50.2500642,22.0085152 C48.1965043,18.4165963 46.1429445,14.8248212 44.0895276,11.2330461 C48.1973624,11.2334776 52.3050542,11.234053 56.412746,11.2344845" id="Fill-38" fill="#2455A6"></path>
                <path d="M6.61456996,32.792744 C7.31720521,31.2782753 8.23507882,29.8853495 9.04797905,28.4331625 C10.245305,26.2942936 11.4549303,24.1626165 12.659407,22.0279189 C12.696734,22.0286381 12.7337751,22.0273436 12.7708161,22.0241791 C14.8263782,25.6145159 16.8819402,29.2047087 18.9373593,32.7949016 L6.61456996,32.792744 Z" id="Fill-40" fill="#2455A6"></path>
                <path d="M31.4834245,11.2095574 C33.4205697,14.5740686 35.3602892,17.9369977 37.2904267,21.3055364 C37.4511762,21.5860203 37.8058547,22.0096228 37.07147,22.0089036 C33.1455509,22.0050199 29.2194888,21.9884786 25.2932837,21.9762524 C27.3169533,18.36434 29.3564977,14.7614894 31.4834245,11.2095574" id="Fill-42" fill="#F27E9B"></path>
                <path d="M31.533766,32.8287754 C31.4794201,32.771528 31.4250742,32.7142805 31.3705853,32.6571769 C30.8585897,31.3952873 30.0840176,30.2762288 29.4311518,29.0920118 C28.2597116,26.9666636 27.0387881,24.8682131 25.7999877,22.781845 C25.4578946,22.2057744 25.6109212,22.1466571 26.1801229,22.1489585 C30.0077904,22.165356 33.8354578,22.1574449 37.6631252,22.1574449 C36.2488447,24.6469905 34.8395697,27.1394129 33.4181385,29.6247872 C32.8030287,30.7002628 32.1626052,31.7612109 31.533766,32.8287754" id="Fill-44" fill="#F17393"></path>
            </g>
        </g>
    </g>
</svg>