<?xml version="1.0" encoding="UTF-8" standalone="no"?>
<svg width="25px" height="65px" viewBox="0 0 25 65" version="1.1" xmlns="http://www.w3.org/2000/svg" xmlns:xlink="http://www.w3.org/1999/xlink">
    <!-- Generator: Sketch 41.2 (35397) - http://www.bohemiancoding.com/sketch -->
    <title>96xt beadchip icon</title>
    <desc>Created with Sketch.</desc>
    <defs>
        <path d="M2.63157895,4.73958333 L6.57894737,4.73958333 L6.57894737,6.09375 L2.63157895,6.09375 L2.63157895,4.73958333 Z M7.89473684,4.73958333 L11.8421053,4.73958333 L11.8421053,6.09375 L7.89473684,6.09375 L7.89473684,4.73958333 Z M13.1578947,4.73958333 L17.1052632,4.73958333 L17.1052632,6.09375 L13.1578947,6.09375 L13.1578947,4.73958333 Z M18.4210526,4.73958333 L22.3684211,4.73958333 L22.3684211,6.09375 L18.4210526,6.09375 L18.4210526,4.73958333 Z M2.63157895,6.77083333 L6.57894737,6.77083333 L6.57894737,8.125 L2.63157895,8.125 L2.63157895,6.77083333 Z M7.89473684,6.77083333 L11.8421053,6.77083333 L11.8421053,8.125 L7.89473684,8.125 L7.89473684,6.77083333 Z M13.1578947,6.77083333 L17.1052632,6.77083333 L17.1052632,8.125 L13.1578947,8.125 L13.1578947,6.77083333 Z M18.4210526,6.77083333 L22.3684211,6.77083333 L22.3684211,8.125 L18.4210526,8.125 L18.4210526,6.77083333 Z M2.63157895,8.80208333 L6.57894737,8.80208333 L6.57894737,10.15625 L2.63157895,10.15625 L2.63157895,8.80208333 Z M7.89473684,8.80208333 L11.8421053,8.80208333 L11.8421053,10.15625 L7.89473684,10.15625 L7.89473684,8.80208333 Z M13.1578947,8.80208333 L17.1052632,8.80208333 L17.1052632,10.15625 L13.1578947,10.15625 L13.1578947,8.80208333 Z M18.4210526,8.80208333 L22.3684211,8.80208333 L22.3684211,10.15625 L18.4210526,10.15625 L18.4210526,8.80208333 Z M2.63157895,10.8333333 L6.57894737,10.8333333 L6.57894737,12.1875 L2.63157895,12.1875 L2.63157895,10.8333333 Z M7.89473684,10.8333333 L11.8421053,10.8333333 L11.8421053,12.1875 L7.89473684,12.1875 L7.89473684,10.8333333 Z M13.1578947,10.8333333 L17.1052632,10.8333333 L17.1052632,12.1875 L13.1578947,12.1875 L13.1578947,10.8333333 Z M18.4210526,10.8333333 L22.3684211,10.8333333 L22.3684211,12.1875 L18.4210526,12.1875 L18.4210526,10.8333333 Z M2.63157895,12.8645833 L6.57894737,12.8645833 L6.57894737,14.21875 L2.63157895,14.21875 L2.63157895,12.8645833 Z M7.89473684,12.8645833 L11.8421053,12.8645833 L11.8421053,14.21875 L7.89473684,14.21875 L7.89473684,12.8645833 Z M13.1578947,12.8645833 L17.1052632,12.8645833 L17.1052632,14.21875 L13.1578947,14.21875 L13.1578947,12.8645833 Z M18.4210526,12.8645833 L22.3684211,12.8645833 L22.3684211,14.21875 L18.4210526,14.21875 L18.4210526,12.8645833 Z M2.63157895,14.8958333 L6.57894737,14.8958333 L6.57894737,16.25 L2.63157895,16.25 L2.63157895,14.8958333 Z M7.89473684,14.8958333 L11.8421053,14.8958333 L11.8421053,16.25 L7.89473684,16.25 L7.89473684,14.8958333 Z M13.1578947,14.8958333 L17.1052632,14.8958333 L17.1052632,16.25 L13.1578947,16.25 L13.1578947,14.8958333 Z M18.4210526,14.8958333 L22.3684211,14.8958333 L22.3684211,16.25 L18.4210526,16.25 L18.4210526,14.8958333 Z M2.63157895,16.9270833 L6.57894737,16.9270833 L6.57894737,18.28125 L2.63157895,18.28125 L2.63157895,16.9270833 Z M7.89473684,16.9270833 L11.8421053,16.9270833 L11.8421053,18.28125 L7.89473684,18.28125 L7.89473684,16.9270833 Z M13.1578947,16.9270833 L17.1052632,16.9270833 L17.1052632,18.28125 L13.1578947,18.28125 L13.1578947,16.9270833 Z M18.4210526,16.9270833 L22.3684211,16.9270833 L22.3684211,18.28125 L18.4210526,18.28125 L18.4210526,16.9270833 Z M2.63157895,18.9583333 L6.57894737,18.9583333 L6.57894737,20.3125 L2.63157895,20.3125 L2.63157895,18.9583333 Z M7.89473684,18.9583333 L11.8421053,18.9583333 L11.8421053,20.3125 L7.89473684,20.3125 L7.89473684,18.9583333 Z M13.1578947,18.9583333 L17.1052632,18.9583333 L17.1052632,20.3125 L13.1578947,20.3125 L13.1578947,18.9583333 Z M18.4210526,18.9583333 L22.3684211,18.9583333 L22.3684211,20.3125 L18.4210526,20.3125 L18.4210526,18.9583333 Z M2.63157895,20.9895833 L6.57894737,20.9895833 L6.57894737,22.34375 L2.63157895,22.34375 L2.63157895,20.9895833 Z M7.89473684,20.9895833 L11.8421053,20.9895833 L11.8421053,22.34375 L7.89473684,22.34375 L7.89473684,20.9895833 Z M13.1578947,20.9895833 L17.1052632,20.9895833 L17.1052632,22.34375 L13.1578947,22.34375 L13.1578947,20.9895833 Z M18.4210526,20.9895833 L22.3684211,20.9895833 L22.3684211,22.34375 L18.4210526,22.34375 L18.4210526,20.9895833 Z M2.63157895,23.0208333 L6.57894737,23.0208333 L6.57894737,24.375 L2.63157895,24.375 L2.63157895,23.0208333 Z M7.89473684,23.0208333 L11.8421053,23.0208333 L11.8421053,24.375 L7.89473684,24.375 L7.89473684,23.0208333 Z M13.1578947,23.0208333 L17.1052632,23.0208333 L17.1052632,24.375 L13.1578947,24.375 L13.1578947,23.0208333 Z M18.4210526,23.0208333 L22.3684211,23.0208333 L22.3684211,24.375 L18.4210526,24.375 L18.4210526,23.0208333 Z M2.63157895,25.0520833 L6.57894737,25.0520833 L6.57894737,26.40625 L2.63157895,26.40625 L2.63157895,25.0520833 Z M7.89473684,25.0520833 L11.8421053,25.0520833 L11.8421053,26.40625 L7.89473684,26.40625 L7.89473684,25.0520833 Z M13.1578947,25.0520833 L17.1052632,25.0520833 L17.1052632,26.40625 L13.1578947,26.40625 L13.1578947,25.0520833 Z M18.4210526,25.0520833 L22.3684211,25.0520833 L22.3684211,26.40625 L18.4210526,26.40625 L18.4210526,25.0520833 Z M2.63157895,27.0833333 L6.57894737,27.0833333 L6.57894737,28.4375 L2.63157895,28.4375 L2.63157895,27.0833333 Z M7.89473684,27.0833333 L11.8421053,27.0833333 L11.8421053,28.4375 L7.89473684,28.4375 L7.89473684,27.0833333 Z M13.1578947,27.0833333 L17.1052632,27.0833333 L17.1052632,28.4375 L13.1578947,28.4375 L13.1578947,27.0833333 Z M18.4210526,27.0833333 L22.3684211,27.0833333 L22.3684211,28.4375 L18.4210526,28.4375 L18.4210526,27.0833333 Z M2.63157895,29.1145833 L6.57894737,29.1145833 L6.57894737,30.46875 L2.63157895,30.46875 L2.63157895,29.1145833 Z M7.89473684,29.1145833 L11.8421053,29.1145833 L11.8421053,30.46875 L7.89473684,30.46875 L7.89473684,29.1145833 Z M13.1578947,29.1145833 L17.1052632,29.1145833 L17.1052632,30.46875 L13.1578947,30.46875 L13.1578947,29.1145833 Z M18.4210526,29.1145833 L22.3684211,29.1145833 L22.3684211,30.46875 L18.4210526,30.46875 L18.4210526,29.1145833 Z M2.63157895,31.1458333 L6.57894737,31.1458333 L6.57894737,32.5 L2.63157895,32.5 L2.63157895,31.1458333 Z M7.89473684,31.1458333 L11.8421053,31.1458333 L11.8421053,32.5 L7.89473684,32.5 L7.89473684,31.1458333 Z M13.1578947,31.1458333 L17.1052632,31.1458333 L17.1052632,32.5 L13.1578947,32.5 L13.1578947,31.1458333 Z M18.4210526,31.1458333 L22.3684211,31.1458333 L22.3684211,32.5 L18.4210526,32.5 L18.4210526,31.1458333 Z M2.63157895,33.1770833 L6.57894737,33.1770833 L6.57894737,34.53125 L2.63157895,34.53125 L2.63157895,33.1770833 Z M7.89473684,33.1770833 L11.8421053,33.1770833 L11.8421053,34.53125 L7.89473684,34.53125 L7.89473684,33.1770833 Z M13.1578947,33.1770833 L17.1052632,33.1770833 L17.1052632,34.53125 L13.1578947,34.53125 L13.1578947,33.1770833 Z M18.4210526,33.1770833 L22.3684211,33.1770833 L22.3684211,34.53125 L18.4210526,34.53125 L18.4210526,33.1770833 Z M2.63157895,35.2083333 L6.57894737,35.2083333 L6.57894737,36.5625 L2.63157895,36.5625 L2.63157895,35.2083333 Z M7.89473684,35.2083333 L11.8421053,35.2083333 L11.8421053,36.5625 L7.89473684,36.5625 L7.89473684,35.2083333 Z M13.1578947,35.2083333 L17.1052632,35.2083333 L17.1052632,36.5625 L13.1578947,36.5625 L13.1578947,35.2083333 Z M18.4210526,35.2083333 L22.3684211,35.2083333 L22.3684211,36.5625 L18.4210526,36.5625 L18.4210526,35.2083333 Z M2.63157895,37.2395833 L6.57894737,37.2395833 L6.57894737,38.59375 L2.63157895,38.59375 L2.63157895,37.2395833 Z M7.89473684,37.2395833 L11.8421053,37.2395833 L11.8421053,38.59375 L7.89473684,38.59375 L7.89473684,37.2395833 Z M13.1578947,37.2395833 L17.1052632,37.2395833 L17.1052632,38.59375 L13.1578947,38.59375 L13.1578947,37.2395833 Z M18.4210526,37.2395833 L22.3684211,37.2395833 L22.3684211,38.59375 L18.4210526,38.59375 L18.4210526,37.2395833 Z M2.63157895,39.2708333 L6.57894737,39.2708333 L6.57894737,40.625 L2.63157895,40.625 L2.63157895,39.2708333 Z M7.89473684,39.2708333 L11.8421053,39.2708333 L11.8421053,40.625 L7.89473684,40.625 L7.89473684,39.2708333 Z M13.1578947,39.2708333 L17.1052632,39.2708333 L17.1052632,40.625 L13.1578947,40.625 L13.1578947,39.2708333 Z M18.4210526,39.2708333 L22.3684211,39.2708333 L22.3684211,40.625 L18.4210526,40.625 L18.4210526,39.2708333 Z M2.63157895,41.3020833 L6.57894737,41.3020833 L6.57894737,42.65625 L2.63157895,42.65625 L2.63157895,41.3020833 Z M7.89473684,41.3020833 L11.8421053,41.3020833 L11.8421053,42.65625 L7.89473684,42.65625 L7.89473684,41.3020833 Z M13.1578947,41.3020833 L17.1052632,41.3020833 L17.1052632,42.65625 L13.1578947,42.65625 L13.1578947,41.3020833 Z M18.4210526,41.3020833 L22.3684211,41.3020833 L22.3684211,42.65625 L18.4210526,42.65625 L18.4210526,41.3020833 Z M2.63157895,43.3333333 L6.57894737,43.3333333 L6.57894737,44.6875 L2.63157895,44.6875 L2.63157895,43.3333333 Z M7.89473684,43.3333333 L11.8421053,43.3333333 L11.8421053,44.6875 L7.89473684,44.6875 L7.89473684,43.3333333 Z M13.1578947,43.3333333 L17.1052632,43.3333333 L17.1052632,44.6875 L13.1578947,44.6875 L13.1578947,43.3333333 Z M18.4210526,43.3333333 L22.3684211,43.3333333 L22.3684211,44.6875 L18.4210526,44.6875 L18.4210526,43.3333333 Z M2.63157895,45.3645833 L6.57894737,45.3645833 L6.57894737,46.71875 L2.63157895,46.71875 L2.63157895,45.3645833 Z M7.89473684,45.3645833 L11.8421053,45.3645833 L11.8421053,46.71875 L7.89473684,46.71875 L7.89473684,45.3645833 Z M13.1578947,45.3645833 L17.1052632,45.3645833 L17.1052632,46.71875 L13.1578947,46.71875 L13.1578947,45.3645833 Z M18.4210526,45.3645833 L22.3684211,45.3645833 L22.3684211,46.71875 L18.4210526,46.71875 L18.4210526,45.3645833 Z M2.63157895,47.3958333 L6.57894737,47.3958333 L6.57894737,48.75 L2.63157895,48.75 L2.63157895,47.3958333 Z M7.89473684,47.3958333 L11.8421053,47.3958333 L11.8421053,48.75 L7.89473684,48.75 L7.89473684,47.3958333 Z M13.1578947,47.3958333 L17.1052632,47.3958333 L17.1052632,48.75 L13.1578947,48.75 L13.1578947,47.3958333 Z M18.4210526,47.3958333 L22.3684211,47.3958333 L22.3684211,48.75 L18.4210526,48.75 L18.4210526,47.3958333 Z M2.63157895,49.4270833 L6.57894737,49.4270833 L6.57894737,50.78125 L2.63157895,50.78125 L2.63157895,49.4270833 Z M7.89473684,49.4270833 L11.8421053,49.4270833 L11.8421053,50.78125 L7.89473684,50.78125 L7.89473684,49.4270833 Z M13.1578947,49.4270833 L17.1052632,49.4270833 L17.1052632,50.78125 L13.1578947,50.78125 L13.1578947,49.4270833 Z M18.4210526,49.4270833 L22.3684211,49.4270833 L22.3684211,50.78125 L18.4210526,50.78125 L18.4210526,49.4270833 Z M2.63157895,51.4583333 L6.57894737,51.4583333 L6.57894737,52.8125 L2.63157895,52.8125 L2.63157895,51.4583333 Z M7.89473684,51.4583333 L11.8421053,51.4583333 L11.8421053,52.8125 L7.89473684,52.8125 L7.89473684,51.4583333 Z M13.1578947,51.4583333 L17.1052632,51.4583333 L17.1052632,52.8125 L13.1578947,52.8125 L13.1578947,51.4583333 Z M18.4210526,51.4583333 L22.3684211,51.4583333 L22.3684211,52.8125 L18.4210526,52.8125 L18.4210526,51.4583333 Z" id="path-1"></path>
        <linearGradient x1="0%" y1="0%" x2="100%" y2="100%" id="linearGradient-3">
            <stop stop-color="#FF7A7A" offset="0%"></stop>
            <stop stop-color="#E9ED97" offset="30.2016901%"></stop>
            <stop stop-color="#86E295" offset="55.4468272%"></stop>
            <stop stop-color="#5BA6F8" offset="75.9327168%"></stop>
            <stop stop-color="#8D1D80" offset="100%"></stop>
        </linearGradient>
    </defs>
    <g id="Page-1" stroke="none" stroke-width="1" fill="none" fill-rule="evenodd">
        <g id="polymer-icon-copy-3" transform="translate(-20.000000, 0.000000)">
            <g id="96xt-beadchip-icon" transform="translate(20.000000, 0.000000)">
                <rect id="beadchip" fill="#3E4752" x="0" y="0" width="25" height="65"></rect>
                <mask id="mask-2" fill="white">
                    <use xlink:href="#path-1"></use>
                </mask>
                <use id="96-wells" fill="#D8D8D8" xlink:href="#path-1"></use>
                <rect id="rainbow" fill="url(#linearGradient-3)" opacity="0.7" mask="url(#mask-2)" x="2.63157895" y="4.73958333" width="19.7368421" height="48.0729167"></rect>
                <g id="barcode" transform="translate(2.631579, 56.875000)">
                    <rect id="barcode-label" fill="#FFFFFF" x="0" y="0" width="19.7368421" height="5.41666667"></rect>
                    <g transform="translate(1.973684, 0.677083)" fill="#69788E">
                        <rect id="Rectangle-679" x="0" y="0" width="0.657894737" height="4.0625"></rect>
                        <rect id="Rectangle-679-Copy" x="1.31578947" y="0" width="1.97368421" height="4.0625"></rect>
                        <rect id="Rectangle-679-Copy-2" x="3.94736842" y="0" width="0.657894737" height="4.0625"></rect>
                        <rect id="Rectangle-679-Copy-3" x="6.57894737" y="0" width="1.97368421" height="4.0625"></rect>
                        <rect id="Rectangle-679-Copy-4" x="9.21052632" y="0" width="1.31578947" height="4.0625"></rect>
                        <rect id="Rectangle-679-Copy-5" x="12.5" y="0" width="0.657894737" height="4.0625"></rect>
                        <rect id="Rectangle-679-Copy-6" x="14.4736842" y="0" width="0.657894737" height="4.0625"></rect>
                    </g>
                </g>
            </g>
        </g>
    </g>
</svg>