<?xml version="1.0" encoding="UTF-8" standalone="no"?>
<svg width="50px" height="48px" viewBox="0 0 50 48" version="1.1" xmlns="http://www.w3.org/2000/svg" xmlns:xlink="http://www.w3.org/1999/xlink">
    <!-- Generator: Sketch 41.2 (35397) - http://www.bohemiancoding.com/sketch -->
    <title>Group</title>
    <desc>Created with Sketch.</desc>
    <defs></defs>
    <g id="Page-1" stroke="none" stroke-width="1" fill="none" fill-rule="evenodd">
        <g id="data-viz-icon" transform="translate(-8.000000, -9.000000)">
            <g id="Group" transform="translate(8.000000, 9.000000)">
                <ellipse id="Oval-1" fill="#C08CAF" cx="6.4893617" cy="23.8919005" rx="6.4893617" ry="6.47735969"></ellipse>
                <ellipse id="Oval-1-Copy-6" fill="#585289" cx="6.4893617" cy="41.0940689" rx="6.4893617" ry="6.47735969"></ellipse>
                <ellipse id="Oval-1-Copy" fill="#A370BD" cx="25" cy="23.8919005" rx="6.4893617" ry="6.47735969"></ellipse>
                <path d="M25,47.5714286 C28.5839755,47.5714286 31.4893617,44.6714159 31.4893617,41.0940689 C31.4893617,37.5167219 28.5839755,34.6167092 25,34.6167092 C21.4160245,34.6167092 18.5106383,37.5167219 18.5106383,41.0940689 C18.5106383,44.6714159 21.4160245,47.5714286 25,47.5714286 Z" id="Oval-1-Copy-7" fill="#2D465F"></path>
                <ellipse id="Oval-1-Copy-2" fill="#815BB5" cx="43.5106383" cy="23.8919005" rx="6.4893617" ry="6.47735969"></ellipse>
                <ellipse id="Oval-1-Copy-8" fill="#003836" cx="43.5106383" cy="41.0940689" rx="6.4893617" ry="6.47735969"></ellipse>
                <ellipse id="Oval-1-Copy-3" fill="#FEDF83" cx="6.4893617" cy="6.47735969" rx="6.4893617" ry="6.47735969"></ellipse>
                <ellipse id="Oval-1-Copy-4" fill="#EDC590" cx="25" cy="6.47735969" rx="6.4893617" ry="6.47735969"></ellipse>
                <ellipse id="Oval-1-Copy-5" fill="#D7A8A1" cx="43.5106383" cy="6.47735969" rx="6.4893617" ry="6.47735969"></ellipse>
            </g>
        </g>
    </g>
</svg>